<?xml version="1.0" encoding="UTF-8"?>
<svg id="Layer_1" xmlns="http://www.w3.org/2000/svg" version="1.1" viewBox="0 0 256 95">
  <!-- Generator: Adobe Illustrator 29.2.1, SVG Export Plug-In . SVG Version: 2.1.0 Build 116)  -->
  <defs>
    <style>
      .st0 {
        fill: #e21836;
      }

      .st1 {
        fill: #bbbdbf;
      }
    </style>
  </defs>
  <path class="st0" d="M60.4,42.7h8.4s1.9-6.3,2.1-6.9c.4-.2,17.7-10.1,17.7-10.1l1.9-6h-8.4s-.7,2.6-.9,3c-.4.2-12.7,7.1-13.1,7.5-.4-.4-7.7-6.5-8.2-7.1.2-.7.9-3.4.9-3.4h-8.4l-1.7,5.8s11.2,9.7,11.8,10.3c-.4.9-2.1,7.1-2.1,7.1v-.2Z"/>
  <path class="st0" d="M131.2,33.4l-2.8,9.3h38.1l1.9-6.2h-28.9c1.9-.7,12.7-5.4,12.7-5.4,0,0-8.6-4.9-9.9-5.6h29.3l1.9-6.2h-38.1l-2.8,9.1s2.6,1.5,4.1,2.2c-1.7.7-5.4,2.2-5.4,2.2"/>
  <path class="st0" d="M19.5,19.8h-8.4l-6.9,23h8.4s6.9-23,6.9-23Z"/>
  <path class="st0" d="M48.3,19.8h-7.7s-2.2,7.7-2.6,8.4h-18.9l-1.9,6.2h19c-.6,1.5-2.6,8.4-2.6,8.4h8.4l6.9-23s-.7,0-.7,0Z"/>
  <path class="st0" d="M100,25.7h21.3c0,.4-.4,1.5-.6,1.9-.4,0-6.9,3-7.1,3h-12.9l-1.9,6.2h16.1l13.1-5.4,3.5-11.6h-38.1l-6.9,23h8.4s5-17,5-17Z"/>
  <path class="st0" d="M172.6,35.1l-2.2,7.7h8.4s1.5-4.9,1.7-5.8c-2.6-.7-5-1.3-7.8-1.9Z"/>
  <path class="st0" d="M199.7,36.4c-8.4-2.8-17.2-4.5-26-4.7l3.5-12.1h38.1l-3.5,11.8-12.1,4.9v.2ZM183.8,25.7c0,.4-.4,1.1-.7,2.2h0c-.4,1.1-.6,2.2-.7,2.8h15.5l1.1-.6c1.9-.7,5-2.2,5.4-2.2,0-.2,0-.6.4-1.1l.4-1.1s-21.3,0-21.3,0Z"/>
  <path class="st1" d="M252.5,88.1c-5.8-17-14.4-28.9-24.1-37.5,8.8-8.6,14.7-20.2,15.9-35.8,0,0-3.5,15.5-22.8,30.4-28.6-19.4-62.7-14-62.7-14,19.8,1.5,39,7.8,55.6,18.9-17.9,11.4-46.5,21.3-91.5,21.7,0,0,64.2,9.7,99.3-16.1,11.9,9,22,19.8,30.2,32.3v.2Z"/>
</svg>