<?xml version="1.0" encoding="UTF-8"?>
<svg id="Layer_1" xmlns="http://www.w3.org/2000/svg" version="1.1" viewBox="0 0 24 24">
  <!-- Generator: Adobe Illustrator 29.2.1, SVG Export Plug-In . SVG Version: 2.1.0 Build 116)  -->
  <defs>
    <style>
      .st0 {
        fill: #fff;
      }
    </style>
  </defs>
  <path class="st0" d="M19,5.3c-1.3-.6-2.7-1-4.1-1.3-.2.3-.4.7-.5,1.1-1.5-.2-3.1-.2-4.6,0-.2-.4-.3-.7-.5-1.1-1.5.2-2.8.7-4.1,1.3-2.6,3.8-3.3,7.6-3,11.2,1.5,1.1,3.2,2,5.1,2.5.4-.5.8-1.1,1.1-1.7-.6-.2-1.2-.5-1.7-.8.1-.1.3-.2.4-.3,3.3,1.5,6.9,1.5,10.1,0,.1.1.3.2.4.3-.5.3-1.1.6-1.7.8.3.6.7,1.2,1.1,1.7,1.6-.5,3.3-1.3,5.1-2.5.4-4.3-.7-8-3-11.2ZM8.7,14.2c-1,0-1.8-.9-1.8-2s.8-2,1.8-2,1.8.9,1.8,2c0,1.1-.8,2-1.8,2h0ZM15.3,14.2c-1,0-1.8-.9-1.8-2s.8-2,1.8-2,1.8.9,1.8,2c0,1.1-.8,2-1.8,2Z"/>
</svg>