<?xml version="1.0" encoding="UTF-8"?>
<svg id="Layer_1" xmlns="http://www.w3.org/2000/svg" version="1.1" viewBox="0 0 24 24">
  <!-- Generator: Adobe Illustrator 29.2.1, SVG Export Plug-In . SVG Version: 2.1.0 Build 116)  -->
  <defs>
    <style>
      .st0 {
        fill: #fffdfd;
        fill-rule: evenodd;
      }
    </style>
  </defs>
  <path class="st0" d="M3,8c0-2.8,2.2-5,5-5h8c2.8,0,5,2.2,5,5v8c0,2.8-2.2,5-5,5h-8c-2.8,0-5-2.2-5-5v-8ZM12,17c2.8,0,5-2.2,5-5s-2.2-5-5-5-5,2.2-5,5,2.2,5,5,5ZM12,15c1.7,0,3-1.3,3-3s-1.3-3-3-3-3,1.3-3,3,1.3,3,3,3ZM18,7c.6,0,1-.4,1-1s-.4-1-1-1-1,.4-1,1,.4,1,1,1Z"/>
</svg>