<?xml version="1.0" encoding="UTF-8"?>
<svg id="Layer_1" xmlns="http://www.w3.org/2000/svg" version="1.1" viewBox="0 0 24 24">
  <!-- Generator: Adobe Illustrator 29.2.1, SVG Export Plug-In . SVG Version: 2.1.0 Build 116)  -->
  <defs>
    <style>
      .st0 {
        fill: #fcfafa;
      }
    </style>
  </defs>
  <path class="st0" d="M21.3,6.8c-.7.3-1.4.5-2.2.6.8-.5,1.4-1.2,1.6-2.1-.7.4-1.5.7-2.4.9-.7-.7-1.7-1.2-2.7-1.2-2.1,0-3.7,1.7-3.7,3.7s0,.6,0,.9c-3.1-.2-5.9-1.6-7.7-3.9-.3.6-.5,1.2-.5,1.9,0,1.3.7,2.4,1.7,3.1-.6,0-1.2-.2-1.7-.5,0,0,0,0,0,0,0,1.8,1.3,3.3,3,3.7-.3,0-.6.1-1,.1s-.5,0-.7,0c.5,1.5,1.9,2.6,3.5,2.6-1.3,1-2.9,1.6-4.7,1.6s-.6,0-.9,0c1.7,1.1,3.6,1.7,5.7,1.7,6.9,0,10.7-5.7,10.7-10.7s0-.3,0-.5c.7-.5,1.4-1.2,1.9-1.9Z"/>
</svg>