<?xml version="1.0" encoding="UTF-8"?>
<svg id="Layer_1" xmlns="http://www.w3.org/2000/svg" version="1.1" viewBox="0 0 24 24">
  <!-- Generator: Adobe Illustrator 29.2.1, SVG Export Plug-In . SVG Version: 2.1.0 Build 116)  -->
  <defs>
    <style>
      .st0 {
        fill: #fff;
        fill-rule: evenodd;
      }
    </style>
  </defs>
  <path class="st0" d="M21.8,8.1s-.2-1.4-.8-2c-.8-.8-1.6-.8-2-.9-2.8-.2-7-.2-7-.2h0s-4.2,0-7,.2c-.4,0-1.2,0-2,.9-.6.6-.8,2-.8,2,0,0-.2,1.6-.2,3.3v1.5c0,1.6.2,3.3.2,3.3,0,0,.2,1.4.8,2,.8.8,1.8.8,2.2.9,1.6.2,6.8.2,6.8.2,0,0,4.2,0,7-.2.4,0,1.2,0,2-.9.6-.6.8-2,.8-2,0,0,.2-1.6.2-3.3v-1.5c0-1.6-.2-3.3-.2-3.3ZM9.9,14.7v-5.7s5.4,2.8,5.4,2.8c0,0-5.4,2.8-5.4,2.8Z"/>
</svg>